# AST/ASF file generated using VICON BodyLanguage
# -----------------------------------------------
:version 1.10
:name VICON
:units
  mass 1.0
  length 0.45
  angle deg
:documentation
   .ast/.asf automatically generated from VICON data using
   VICON BodyBuilder and BodyLanguage model FoxedUp or BRILLIANT.MOD
:root
   order TX TY TZ RX RY RZ
   axis XYZ
   position 0 0 0  
   orientation 0 0 0 
:bonedata
  begin
     id 1 
     name lhipjoint
     direction 0.662698 -0.695252 0.27831 
     length 2.53073 
     axis 0 0 0  XYZ
  end
  begin
     id 2 
     name lfemur
     direction 0.34202 -0.939693 0  
     length 7.16147  
     axis 0 0 20  XYZ
    dof rx ry rz
    limits (-160.0 20.0)
           (-70.0 70.0)
           (-60.0 70.0)
  end
  begin
     id 3 
     name ltibia
     direction 0.34202 -0.939693 0   
     length 7.63967   
     axis 0 0 20   XYZ
    dof rx
    limits (-10.0 170.0)
  end
  begin
     id 4 
     name lfoot
     direction 0.0938457 -0.257721 0.961651   
     length 1.89793   
     axis -90 7.62852e-016 20   XYZ
    dof rx rz
    limits (-45.0 90.0)
           (-70.0 20.0)
  end
  begin
     id 5 
     name ltoes
     direction -0.00116841 -0.0030592 0.999995   
     length 0.955649   
     axis -90 7.62852e-016 20   XYZ
    dof rx
    limits (-90.0 20.0)
  end
  begin
     id 6 
     name rhipjoint
     direction -0.649445 -0.705948 0.282592   
     length 2.49238  
     axis 0 0 0  XYZ 
  end
  begin
     id 7 
     name rfemur
     direction -0.34202 -0.939693 0   
     length 6.90728   
     axis 0 0 -20   XYZ
    dof rx ry rz
    limits (-160.0 20.0)
           (-70.0 70.0)
           (-70.0 60.0)
  end
  begin
     id 8 
     name rtibia
     direction -0.34202 -0.939693 0   
     length 7.72868   
     axis 0 0 -20   XYZ
    dof rx
    limits (-10.0 170.0)
 end
 begin
     id 9 
     name rfoot
     direction -0.0920068 -0.252865 0.963117   
     length 1.97476  
     axis -90 -7.62852e-016 -20   XYZ
    dof rx rz
    limits (-45.0 90.0)
           (-20.0 70.0)
  end
  begin
     id 10 
     name rtoes
     direction 0.000391322 0.00230649 0.999997   
     length 0.992641   
     axis -90 -7.62852e-016 -20   XYZ
    dof rx
    limits (-90.0 20.0)
  end
  begin
     id 11 
     name lowerback
     direction -0.00875327 0.998321 -0.0572635   
     length 2.20024   
     axis 0 0 0   XYZ
    dof rx ry rz
    limits (-20.0 45.0)
           (-30.0 30.0)
           (-30.0 30.0)
  end
  begin
     id 12 
     name upperback
     direction 0.00753931 0.999972 -0.000360425   
     length 2.20538   
     axis 0 0 0   XYZ
    dof rx ry rz
    limits (-20.0 45.0)
           (-30.0 30.0)
           (-30.0 30.0)
  end
  begin
     id 13 
     name thorax
     direction 0.0117767 0.999601 0.0256663   
     length 2.21508   
     axis 0 0 0   XYZ
    dof rx ry rz
    limits (-20.0 45.0)
           (-30.0 30.0)
           (-30.0 30.0)
  end
  begin
     id 14 
     name lowerneck
     direction 0.060228 0.994909 0.0807986   
     length 1.7607   
     axis 0 0 0   XYZ
    dof rx ry rz
    limits (-20.0 45.0)
           (-30.0 30.0)
           (-30.0 30.0)
  end
  begin
     id 15 
     name upperneck
     direction -0.0563647 0.959594 -0.275685   
     length 1.75612   
     axis 0 0 0   XYZ
    dof rx ry rz
    limits (-20.0 45.0)
           (-30.0 30.0)
           (-30.0 30.0)
  end
  begin
     id 16
     name head
     direction -0.0161544 0.99458 -0.102714  
     length 1.79288  
     axis 0 0 0   XYZ
    dof rx ry rz
    limits (-20.0 45.0)
           (-30.0 30.0)
           (-30.0 30.0)
  end
  begin
     id 17 
     name lclavicle
     direction 0.93913 0.332189 -0.087669  
     length 3.52087  
     axis 0 0 0   XYZ
    dof ry rz
    limits (-20.0 10.0)
           (0.0 20.0)
  end
  begin
     id 18 
     name lhumerus
     direction 1 -4.48974e-011 -2.70836e-027   
     length 5.35289   
     axis -180 -30 -90   XYZ
    dof rx ry rz
    limits (-60.0 90.0)
           (-90.0 90.0)
           (-90.0 90.0)
  end
  begin
     id 19
     name lradius
     direction 1 -4.48961e-011 -9.76021e-027   
     length 3.27727   
     axis -180 -30 -90   XYZ
    dof rx
    limits (-10.0 170.0)
  end
  begin
     id 20
     name lwrist
     direction 1 -4.49103e-011 -2.23668e-026   
     length 1.63864   
     axis 1.44924e-014 90 90   XYZ
    dof ry
    limits (-180.0 0.0)
 end
  begin
     id 21 
     name lhand
     direction 1 3.0697e-005 0.000161777   
     length 0.54443   
     axis 2.85318e-014 90 90   XYZ
    dof rx rz
    limits (-90.0 90.0)
           (-45.0 45.0)
  end
  begin
     id 22 
     name lfingers
     direction 1 -4.49027e-011 -8.9447e-026   
     length 0.438912   
     axis 5.70628e-014 90 90   XYZ
    dof rx
    limits (0.0 90.0)
  end
  begin
     id 23
     name lthumb
     direction 0.707058 2.6516e-005 0.707156   
     length 0.630274   
     axis -90 45 -3.53137e-014   XYZ
    dof rx rz
    limits (-45.0 45.0)
           (-45.0 45.0)
  end
  begin
     id 24 
     name rclavicle
     direction -0.95274 0.284984 -0.105215   
     length 3.43401  
     axis 0 0 0   XYZ 
    dof ry rz
    limits (-10.0 20.0)
           (-20.0 0.0)
  end
  begin
     id 25 
     name rhumerus
     direction -0.999999 -0.000575019 -0.00106829  
     length 5.52077   
     axis -180 30 90   XYZ
    dof rx ry rz
    limits (-90.0 60.0)
           (-90.0 90.0)
           (-90.0 90.0)
  end
  begin
     id 26 
     name rradius
     direction -1 -4.4879e-011 -6.35415e-027   
     length 3.32364   
     axis -180 30 90   XYZ
    dof rx
    limits (-10.0 170.0)
  end
  begin
     id 27 
     name rwrist
     direction -1 -4.49048e-011 -9.98542e-027   
     length 1.66182   
     axis 6.32482e-015 -90 -90   XYZ
    dof ry
    limits (-180.0 0.0)
  end
  begin
     id 28
     name rhand
     direction -1 -4.48978e-011 -1.99771e-026   
     length 0.732235   
     axis 1.27479e-014 -90 -90   XYZ
    dof rx rz
    limits (-90.0 90.0)
           (-45.0 45.0)
  end
  begin
     id 29
     name rfingers
     direction -1 -4.49144e-011 -3.99245e-026   
     length 0.590347   
     axis 2.5496e-014 -90 -90   XYZ
    dof rx
    limits (0.0 90.0)
  end
  begin
     id 30
     name rthumb
     direction -0.707107 -6.35121e-011 0.707107   
     length 0.847624   
     axis -90 -45 -2.82974e-014   XYZ
    dof rx rz
    limits (-45.0 45.0)
           (-45.0 45.0)
  end
:hierarchy
  begin
    root lhipjoint rhipjoint lowerback
    lhipjoint lfemur
    lfemur ltibia
    ltibia lfoot
    lfoot ltoes
    rhipjoint rfemur
    rfemur rtibia
    rtibia rfoot
    rfoot rtoes
    lowerback upperback
    upperback thorax
    thorax lowerneck lclavicle rclavicle
    lowerneck upperneck
    upperneck head
    lclavicle lhumerus
    lhumerus lradius
    lradius lwrist
    lwrist lhand lthumb
    lhand lfingers
    rclavicle rhumerus
    rhumerus rradius
    rradius rwrist
    rwrist rhand rthumb
    rhand rfingers
  end

#!OML:ASF G:\Work\Work\Patient Classification 1\Elijah\terrain1\Elijah.ASF
:FULLY-SPECIFIED
:DEGREES
856
root 21.4321 22.1938 0.370106 161.709 -79.6949 212.221
lowerback 8.2182 2.89672 4.40305
upperback 1.3936 4.1179 -1.99262
thorax -2.69185 1.98978 -4.95755
lowerneck -0.800872 21.4831 18.5692
upperneck 14.9957 32.7163 -24.412
head 12.5843 14.9592 -6.14548
rclavicle 2.5842e-014 -2.38542e-015
rhumerus -34.4391 12.2495 -91.4462
rradius 52.3148
rwrist -9.64524
rhand -12.3237 22.4211
rfingers 7.12502
rthumb 13.7451 -7.10487
lclavicle 2.5842e-014 -2.38542e-015
lhumerus -33.279 5.13886 74.2864
lradius 41.3759
lwrist 7.01486
lhand -18.4966 26.1771
lfingers 7.12502
lthumb 7.79103 56.0136
rfemur -5.29427 -1.35167 22.1639
rtibia 20.1722
rfoot 12.4244 -19.6677
rtoes -11.7145
lfemur -54.4451 -0.0355213 -14.1679
ltibia 68.4983
lfoot -24.3048 -9.75974
ltoes -7.09658
857
root 21.3619 22.2537 0.396523 160.03 -79.7168 214.012
lowerback 8.14264 2.85939 4.59059
upperback 1.39473 4.08131 -2.02004
thorax -2.63748 1.97218 -5.08346
lowerneck -0.646109 21.7027 18.3817
upperneck 15.1009 32.9757 -24.036
head 12.5294 15.0977 -5.93934
rclavicle 4.53229e-014 -2.8625e-014
rhumerus -34.7516 12.6072 -91.6408
rradius 52.4626
rwrist -9.92012
rhand -12.7103 22.79
rfingers 7.12502
rthumb 13.3724 -6.76084
lclavicle 4.53229e-014 -2.8625e-014
lhumerus -33.039 5.34718 74.4861
lradius 41.3251
lwrist 6.8985
lhand -18.8604 25.8007
lfingers 7.12502
lthumb 7.43992 55.6499
rfemur -5.72513 -2.10848 22.4418
rtibia 20.9589
rfoot 13.6266 -17.4788
rtoes -14.6973
lfemur -53.8819 -0.523118 -13.8706
ltibia 67.8206
lfoot -24.306 -9.73848
ltoes -5.31647
858
root 21.2942 22.3126 0.416436 158.14 -79.6838 215.976
lowerback 8.13619 2.89467 4.80697
upperback 1.33993 4.14602 -2.102
thorax -2.66131 2.0013 -5.29858
lowerneck -0.426468 21.7918 18.6268
upperneck 15.3708 33.0866 -23.7014
head 12.5857 15.1832 -5.84348
rclavicle 1.15295e-014 1.98785e-014
rhumerus -35.1002 12.6015 -91.9559
rradius 52.5319
rwrist -10.1398
rhand -13.3787 22.7696
rfingers 7.12502
rthumb 12.7281 -6.82248
lclavicle 1.15295e-014 1.98785e-014
lhumerus -32.8456 4.14432 74.3597
lradius 41.5448
lwrist 7.58502
lhand -19.0575 26.1199
lfingers 7.12502
lthumb 7.24964 55.9757
rfemur -6.19954 -2.56518 22.793
rtibia 21.9371
rfoot 14.5242 -15.7188
rtoes -16.9539
lfemur -53.292 -0.851893 -13.5703
ltibia 67.1039
lfoot -24.4202 -9.45943
ltoes -5.15653
859
root 21.2266 22.3756 0.4348 157.104 -79.6328 217.023
lowerback 8.17927 2.893 4.75089
upperback 1.30768 4.14005 -2.13871
thorax -2.72088 1.99602 -5.30928
lowerneck 0.106531 21.9035 18.819
upperneck 15.0268 33.2398 -23.8019
head 12.4493 15.3253 -5.90451
rclavicle 2.18663e-014 -2.38542e-015
rhumerus -35.3264 12.8176 -92.1435
rradius 52.4307
rwrist -10.3048
rhand -13.9869 23.0876
rfingers 7.12502
rthumb 12.1418 -6.54008
lclavicle 2.18663e-014 -2.38542e-015
lhumerus -32.6042 4.37828 74.1255
lradius 41.5471
lwrist 6.64792
lhand -17.714 26.2741
lfingers 7.12502
lthumb 8.54631 56.0812
rfemur -6.69612 -2.8435 23.01
rtibia 23.0413
rfoot 15.0292 -14.5783
rtoes -16.4735
lfemur -52.5674 -1.20453 -13.4087
ltibia 66.375
lfoot -24.827 -8.80863
ltoes -7.22954
860
root 21.1587 22.4371 0.450232 156.317 -79.4946 217.744
lowerback 8.19345 2.93089 4.56661
upperback 1.37447 4.17381 -2.08108
thorax -2.6728 2.0165 -5.14607
lowerneck 0.221532 21.9679 18.3992
upperneck 14.8078 33.2222 -23.5072
head 12.1826 15.3444 -5.78533
rclavicle -1.90833e-014 5.40694e-014
rhumerus -35.4661 13.1967 -92.153
rradius 52.2991
rwrist -10.6034
rhand -14.4435 23.628
rfingers 7.12502
rthumb 11.7014 -6.02523
lclavicle -1.90833e-014 5.40694e-014
lhumerus -32.2474 3.72595 73.843
lradius 41.6981
lwrist 6.85679
lhand -16.4075 26.2821
lfingers 7.12502
lthumb 9.80702 56.0337
rfemur -7.2781 -2.75999 23.2691
rtibia 24.5252
rfoot 14.9704 -14.2581
rtoes -13.2357
lfemur -51.6995 -1.34855 -13.3002
ltibia 65.5583
lfoot -25.1805 -8.3201
ltoes -9.45609
861
root 21.0952 22.4866 0.448976 152.207 -79.0524 221.791
lowerback 8.36603 3.02025 5.81549
upperback 1.36244 4.39487 -2.51431
thorax -2.62332 2.11811 -6.33796
lowerneck 0.0247294 21.9819 18.6451
upperneck 15.0611 33.0071 -22.4747
head 12.0594 15.298 -5.50543
rclavicle 5.60573e-014 2.38542e-015
rhumerus -35.6055 12.1174 -92.9721
rradius 52.2148
rwrist -10.7216
rhand -14.8313 23.8075
rfingers 7.12502
rthumb 11.3275 -5.86664
lclavicle 5.60573e-014 2.38542e-015
lhumerus -31.834 3.80985 73.3432
lradius 41.8242
lwrist 5.8108
lhand -17.0973 26.2598
lfingers 7.12502
lthumb 9.14143 56.0417
rfemur -7.91293 -2.52418 24.4361
rtibia 26.2729
rfoot 15.4226 -13.4737
rtoes -15.4336
lfemur -50.9485 -1.28705 -12.3549
ltibia 64.7707
lfoot -25.1012 -8.58788
ltoes -8.70773
862
root 21.0359 22.5541 0.482857 155.521 -79.4461 218.661
lowerback 8.20357 3.06625 4.7276
upperback 1.27811 4.35244 -2.55946
thorax -2.70677 2.1004 -5.75879
lowerneck 0.249337 22.2368 18.4152
upperneck 15.4467 33.4192 -22.257
head 12.1684 15.4779 -5.32454
rclavicle 1.74931e-014 -1.35174e-014
rhumerus -35.832 12.1361 -92.6767
rradius 52.1014
rwrist -10.942
rhand -14.8932 23.6992
rfingers 7.12502
rthumb 11.2677 -5.97818
lclavicle 1.74931e-014 -1.35174e-014
lhumerus -31.8659 2.18029 73.6643
lradius 42.3706
lwrist 7.5488
lhand -17.8873 26.6
lfingers 7.12502
lthumb 8.37907 56.4138
rfemur -9.12629 -3.12478 23.7191
rtibia 28.2921
rfoot 16.2443 -11.7226
rtoes -18.5721
lfemur -50.3446 -1.91072 -13.0875
ltibia 63.7545
lfoot -24.892 -8.75826
ltoes -5.65077
863
root 20.978 22.6232 0.506339 158.624 -79.8146 215.608
lowerback 8.13284 3.03617 3.3842
upperback 1.24971 4.19725 -2.39725
thorax -2.82834 2.02972 -4.81459
lowerneck 0.482964 22.356 18.6627
upperneck 15.6762 33.7741 -22.7215
head 12.4632 15.6166 -5.42165
rclavicle -4.6118e-014 -6.04305e-014
rhumerus -36.0073 12.4507 -92.2318
rradius 51.7857
rwrist -10.8461
rhand -14.814 23.6034
rfingers 7.12502
rthumb 11.3442 -6.06977
lclavicle -4.6118e-014 -6.04305e-014
lhumerus -31.9812 3.37729 74.6732
lradius 42.5513
lwrist 6.65396
lhand -17.9878 26.6208
lfingers 7.12502
lthumb 8.28209 56.4384
rfemur -10.2553 -3.46021 23.0898
rtibia 30.4712
rfoot 16.2735 -11.4335
rtoes -15.0327
lfemur -49.559 -2.52685 -13.7248
ltibia 62.7389
lfoot -24.728 -8.99904
ltoes -3.4283
864
root 20.9189 22.6873 0.515536 160.169 -79.9994 214.024
lowerback 8.10778 3.10171 2.71999
upperback 1.25886 4.21678 -2.5497
thorax -2.8398 2.04324 -4.59994
lowerneck 0.850546 22.4503 20.0014
upperneck 15.8903 34.1484 -23.3566
head 13.0015 15.8185 -5.6706
rclavicle -2.38542e-014 -7.95139e-016
rhumerus -36.2206 12.1053 -92.2346
rradius 51.575
rwrist -10.6426
rhand -14.9298 23.5347
rfingers 7.12502
rthumb 11.2325 -6.1446
lclavicle -2.38542e-014 -7.95139e-016
lhumerus -31.9706 0.935787 74.3894
lradius 43.4007
lwrist 8.8549
lhand -17.8648 27.3569
lfingers 7.12502
lthumb 8.40082 57.1699
rfemur -11.3316 -3.51046 22.92
rtibia 32.815
rfoot 16.1403 -11.5293
rtoes -15.9302
lfemur -48.6359 -3.01467 -14.0416
ltibia 61.6904
lfoot -24.6998 -8.80791
ltoes -3.33187
865
root 20.8607 22.753 0.515748 160.335 -80.0985 213.783
lowerback 8.07927 3.09092 2.47741
upperback 1.3219 4.166 -2.82006
thorax -2.76042 2.02001 -4.73625
lowerneck 0.627793 22.5793 18.7205
upperneck 15.5828 33.8939 -21.9866
head 12.2534 15.744 -5.16586
rclavicle 3.22031e-014 -5.56597e-014
rhumerus -36.3234 11.7129 -92.4442
rradius 51.4747
rwrist -10.3995
rhand -14.8809 23.18
rfingers 7.12502
rthumb 11.2796 -6.49667
lclavicle 3.22031e-014 -5.56597e-014
lhumerus -31.6598 1.64039 74.0386
lradius 43.6285
lwrist 7.83715
lhand -17.9733 27.4199
lfingers 7.12502
lthumb 8.29608 57.237
rfemur -12.3673 -3.66139 23.0345
rtibia 35.124
rfoot 16.3771 -11.0074
rtoes -16.2314
lfemur -47.7411 -3.44088 -14.0221
ltibia 60.716
lfoot -24.4057 -9.33849
ltoes 0.408675
866
root 20.8053 22.8183 0.523803 160.691 -80.1242 213.379
lowerback 8.1062 3.03059 2.28902
upperback 1.32377 4.05774 -3.04036
thorax -2.78104 1.96489 -4.85232
lowerneck 0.930511 22.6608 19.5965
upperneck 15.5387 34.1154 -22.3746
head 12.4999 15.882 -5.32703
rclavicle 3.26007e-014 9.54166e-015
rhumerus -36.3775 11.2985 -92.5296
rradius 51.2057
rwrist -9.91241
rhand -14.1746 23.0879
rfingers 7.12502
rthumb 11.9607 -6.55038
lclavicle 3.26007e-014 9.54166e-015
lhumerus -31.6701 1.69498 73.7533
lradius 44.1322
lwrist 7.88531
lhand -18.3957 27.3975
lfingers 7.12502
lthumb 7.88842 57.2303
rfemur -13.437 -4.0793 23.1151
rtibia 37.4163
rfoot 16.6372 -10.0299
rtoes -16.8186
lfemur -46.9309 -3.58846 -14.0429
ltibia 59.775
lfoot -23.9494 -10.269
ltoes 4.8073
867
root 20.7553 22.8733 0.545949 162.274 -80.1593 211.727
lowerback 8.26229 3.0893 1.42043
upperback 1.22592 4.06537 -2.86064
thorax -3.04344 1.96974 -4.19218
lowerneck 1.53601 22.6433 20.8692
upperneck 15.745 34.479 -23.4605
head 13.1008 16.0658 -5.74858
rclavicle -3.1408e-014 -7.95139e-015
rhumerus -36.7049 11.1121 -91.9852
rradius 50.8559
rwrist -9.43013
rhand -13.3604 23.6245
rfingers 7.12502
rthumb 12.7457 -5.96644
lclavicle -3.1408e-014 -7.95139e-015
lhumerus -31.9663 1.41145 74.2226
lradius 44.647
lwrist 8.74351
lhand -19.0304 27.3759
lfingers 7.12502
lthumb 7.27579 57.2308
rfemur -14.4744 -4.60216 23.0412
rtibia 39.7389
rfoot 16.8471 -8.64088
rtoes -20.7071
lfemur -46.1101 -3.66197 -14.5308
ltibia 58.7765
lfoot -24.1835 -9.27807
ltoes 0.727913
868
root 20.6987 22.9643 0.57542 165.474 -80.3904 208.332
lowerback 8.41168 3.04103 1.44751
upperback 1.29938 3.95833 -3.64371
thorax -3.00052 1.90867 -5.02246
lowerneck 1.48319 22.6748 20.7459
upperneck 15.4445 34.2948 -22.9119
head 12.7703 16.0287 -5.60183
rclavicle -3.97569e-016 1.90833e-014
rhumerus -36.4147 9.30929 -92.006
rradius 49.8059
rwrist -6.20195
rhand -11.7043 25.215
rfingers 7.12502
rthumb 14.3419 -4.26962
lclavicle -3.97569e-016 1.90833e-014
lhumerus -31.5977 1.23871 73.5568
lradius 44.8738
lwrist 9.10197
lhand -19.5311 27.0319
lfingers 7.12502
lthumb 6.79249 56.9029
rfemur -15.5304 -4.47558 22.3822
rtibia 42.1831
rfoot 15.7697 -10.1358
rtoes -14.8343
lfemur -44.9434 -4.89368 -14.6472
ltibia 57.6255
lfoot -23.131 -11.705
ltoes 15.4949
869
root 20.6409 23.0197 0.569853 167.715 -80.5461 205.774
lowerback 8.46149 2.97318 0.187182
upperback 1.46968 3.75832 -3.3984
thorax -2.96994 1.81979 -4.03231
lowerneck 1.31132 22.7308 19.7282
upperneck 15.6244 34.2965 -22.5754
head 12.5866 15.9764 -5.39576
rclavicle -8.46823e-014 6.52014e-014
rhumerus -36.3967 9.60254 -91.4361
rradius 49.3326
rwrist -5.35817
rhand -11.5117 25.3206
rfingers 7.12502
rthumb 14.5276 -4.15078
lclavicle -8.46823e-014 6.52014e-014
lhumerus -31.5801 2.53286 74.0458
lradius 44.9687
lwrist 8.60353
lhand -19.6804 26.6256
lfingers 7.12502
lthumb 6.64832 56.5012
rfemur -16.4258 -4.56117 22.1723
rtibia 44.6661
rfoot 15.7216 -9.64111
rtoes -16.4905
lfemur -43.7378 -5.15711 -15.2418
ltibia 56.3698
lfoot -23.1049 -11.386
ltoes 15.3358
870
root 20.5896 23.0609 0.573559 170.04 -80.6503 203.201
lowerback 8.58632 3.05669 -1.22298
upperback 1.52123 3.75322 -2.9676
thorax -3.10739 1.82853 -2.80041
lowerneck 1.38616 22.7998 19.0886
upperneck 15.9647 34.4236 -22.379
head 12.5643 15.9997 -5.25906
rclavicle 9.54166e-015 3.97569e-015
rhumerus -36.7701 10.2373 -90.8039
rradius 49.3143
rwrist -5.96873
rhand -11.8523 24.7234
rfingers 7.12502
rthumb 14.1994 -4.77125
lclavicle 9.54166e-015 3.97569e-015
lhumerus -31.7153 2.50259 75.0794
lradius 45.3769
lwrist 8.8605
lhand -19.579 26.7164
lfingers 7.12502
lthumb 6.74622 56.5889
rfemur -17.4599 -4.56825 21.8027
rtibia 47.1944
rfoot 14.5801 -10.5732
rtoes -11.7985
lfemur -42.5371 -4.54136 -16.4592
ltibia 55.0459
lfoot -24.1789 -8.01139
ltoes -1.27659
